<?xml version="1.0" standalone="no"?>
<!DOCTYPE svg PUBLIC "-//W3C//DTD SVG 20010904//EN"
 "http://www.w3.org/TR/2001/REC-SVG-20010904/DTD/svg10.dtd">
<svg version="1.0" xmlns="http://www.w3.org/2000/svg"
 width="200.000000pt" height="200.000000pt" viewBox="0 0 200.000000 200.000000"
 preserveAspectRatio="xMidYMid meet">

<g transform="translate(0.000000,200.000000) scale(0.100000,-0.100000)"
fill="#000000" stroke="none">
<path d="M345 1887 c56 -22 74 -37 102 -85 l28 -47 5 -710 c5 -708 5 -710 27
-751 12 -23 36 -53 52 -67 51 -43 109 -49 431 -45 327 3 328 3 388 72 31 36
52 90 52 137 0 39 25 114 49 147 11 16 40 39 63 51 l43 21 -213 0 c-232 0
-255 -4 -304 -56 -37 -40 -57 -92 -64 -167 -11 -121 -38 -161 -71 -110 -17 25
-18 83 -23 748 -5 713 -5 720 -27 760 -27 50 -58 80 -105 100 -30 12 -79 15
-250 14 -174 0 -208 -3 -183 -12z"/>
</g>
</svg>
