<svg width="18" height="14" viewBox="0 0 18 14" fill="none" xmlns="http://www.w3.org/2000/svg">
<path d="M15.6271 3.60007C15.6373 3.747 15.6373 3.89392 15.6373 4.04221C15.6373 8.56046 12.1977 13.7714 5.90813 13.7714V13.7687C4.05019 13.7714 2.23084 13.2392 0.666748 12.2357C0.936909 12.2682 1.20842 12.2845 1.48062 12.2851C3.02033 12.2865 4.51603 11.7699 5.72735 10.8186C4.26415 10.7908 2.98106 9.83678 2.53282 8.444C3.04538 8.54285 3.57351 8.52254 4.07659 8.38509C2.48136 8.06279 1.33369 6.66121 1.33369 5.03347C1.33369 5.01858 1.33369 5.00436 1.33369 4.99014C1.80901 5.25488 2.3412 5.40181 2.88559 5.41806C1.38311 4.41393 0.919981 2.41515 1.82729 0.852419C3.56336 2.98865 6.1248 4.28732 8.87448 4.42477C8.5989 3.23714 8.97537 1.99264 9.86372 1.15779C11.2409 -0.136815 13.4069 -0.0704601 14.7016 1.30607C15.4673 1.15508 16.2013 0.874086 16.873 0.475955C16.6177 1.26748 16.0835 1.93983 15.3698 2.36708C16.0476 2.28718 16.7098 2.10572 17.3334 1.82879C16.8743 2.51672 16.2961 3.11594 15.6271 3.60007Z" fill="black"/>
</svg>
